
Charts the headlong fall of Pinkie, a razor-wielding disadvantaged teenager with a religious death wish.



Director: Rowan Joffe
Writers: Graham Greene (novel), Rowan Joffe (screenplay)
Stars: Helen Mirren, John Hurt and Andy Serkis



SAMPLE INCLUDED

General
Complete name : F:BRIGHTON ROCK 720p BRRip [MKV AC3][RoB]PR3DATOR RG
Format : Matroska
File size : 2.03 GiB
Duration : 1h 51mn
Overall bit rate : 2 618 Kbps
Writing application : Lavf52.13.0
Writing library : Lavf52.13.0

Video
ID : 1
Format : MPEG-4 Visual
Format profile : Simple@L1
Format settings, BVOP : No
Format settings, QPel : No
Format settings, GMC : No warppoints
Format settings, Matrix : Default (H.263)
Codec ID : V_MPEG4/ISO/ASP
Codec ID/Info : Advanced Simple Profile
Duration : 1h 51mn
Bit rate : 2 246 Kbps
Width : 1 024 pixels
Height : 576 pixels
Display aspect ratio : 16:9
Frame rate mode : Constant
Frame rate : 25.000 fps
Color space : YUV
Chroma subsampling : 4:2:0
Bit depth : 8 bits
Scan type : Progressive
Compression mode : Lossy
Bits/(Pixel*Frame) : 0.152
Stream size : 1.74 GiB (86%)
Writing library : Lavc51.54.0
Language : English

Audio
ID : 2
Format : AC-3
Format/Info : Audio Coding 3
Mode extension : CM (complete main)
Codec ID : A_AC3
Duration : 1h 51mn
Bit rate mode : Constant
Bit rate : 320 Kbps
Channel(s) : 6 channels
Channel positions : Front: L C R, Side: L R, LFE
Sampling rate : 48.0 KHz
Bit depth : 16 bits
Compression mode : Lossy
Stream size : 255 MiB (12%)
Language : English

 
http://img43.imageshack.us/img43/411/bscap0000qy.jpg
 
http://img819.imageshack.us/img819/3783/bscap0001fxp.jpg
 
http://img854.imageshack.us/img854/3037/bscap0002hx.jpg
 
http://img860.imageshack.us/img860/9831/bscap0003x.jpg
 
http://img6.imageshack.us/img6/8494/bscap0004hzf.jpg